<?xml version="1.0" standalone="no"?>
<!DOCTYPE svg PUBLIC "-//W3C//DTD SVG 20010904//EN"
 "http://www.w3.org/TR/2001/REC-SVG-20010904/DTD/svg10.dtd">
<svg version="1.0" xmlns="http://www.w3.org/2000/svg"
 width="556.000000pt" height="553.000000pt" viewBox="0 0 556.000000 553.000000"
 preserveAspectRatio="xMidYMid meet">

<g transform="translate(0.000000,553.000000) scale(0.100000,-0.100000)"
fill="#000000" stroke="none">
<path d="M820 5520 c-117 -11 -199 -34 -307 -85 -235 -114 -400 -312 -476
-575 -21 -74 -22 -86 -25 -910 -2 -595 0 -856 8 -908 34 -216 149 -416 317
-552 95 -77 177 -122 293 -161 79 -26 117 -33 220 -38 l125 -6 5 -652 c3 -358
7 -653 10 -656 3 -3 336 292 740 654 l735 658 750 1 c617 0 762 3 819 15 292
62 538 269 649 546 64 161 62 120 62 1059 l0 855 -23 84 c-44 160 -112 281
-221 395 -162 168 -346 255 -586 276 -130 12 -2966 11 -3095 0z m2880 -992
c88 -21 188 -76 254 -141 72 -71 108 -129 142 -226 69 -198 41 -503 -61 -657
l-33 -51 64 -64 c35 -35 64 -67 64 -72 0 -5 -28 -37 -61 -73 l-62 -63 -75 68
-76 69 -56 -28 c-78 -39 -150 -54 -260 -53 -289 1 -493 157 -567 433 -25 92
-25 349 0 440 40 145 102 242 207 321 136 102 338 140 520 97z m-1281 -75 c60
-167 411 -1167 411 -1175 0 -5 -62 -7 -137 -6 l-137 3 -40 123 -41 122 -229
-2 -230 -3 -40 -122 -40 -123 -134 0 c-123 0 -134 1 -130 18 5 17 406 1141
427 1195 l11 27 144 0 144 0 21 -57z m-839 -58 l0 -105 -315 0 -315 0 0 -145
0 -145 275 0 275 0 0 -105 0 -105 -272 -2 -273 -3 -3 -257 -2 -258 -125 0
-125 0 0 615 0 615 440 0 440 0 0 -105z"/>
<path d="M3472 4320 c-107 -22 -190 -97 -233 -208 -31 -79 -39 -297 -14 -392
30 -116 97 -200 194 -243 54 -24 164 -28 225 -8 l38 13 -60 62 -60 61 63 69
63 69 63 -56 c35 -31 67 -53 71 -49 20 20 48 128 54 204 17 215 -61 399 -193
456 -57 24 -152 34 -211 22z"/>
<path d="M2169 3975 l-76 -235 155 0 c142 0 154 1 150 18 -18 66 -144 452
-148 452 -3 0 -39 -106 -81 -235z"/>
<path d="M5039 4620 c-2 -3 -6 -396 -9 -875 l-6 -870 -26 -96 c-94 -346 -292
-570 -588 -668 -165 -54 -159 -54 -982 -60 l-767 -6 -295 -305 -295 -305 137
-6 c75 -4 299 -7 497 -8 l360 -2 680 -704 c374 -387 681 -702 684 -700 3 3 47
1252 51 1423 0 13 4 21 10 17 17 -10 273 15 365 37 362 84 579 277 667 593 22
79 22 86 26 905 2 585 0 848 -8 905 -29 198 -115 380 -250 528 -56 62 -203
177 -225 177 -7 0 -16 6 -18 13 -3 6 -7 10 -8 7z"/>
</g>
</svg>
